<?xml version="1.0" encoding="utf-8"?>
<!-- Generator: Adobe Illustrator 25.0.0, SVG Export Plug-In . SVG Version: 6.00 Build 0)  -->
<svg version="1.1" id="Capa_1" xmlns="http://www.w3.org/2000/svg" xmlns:xlink="http://www.w3.org/1999/xlink" x="0px" y="0px"
	 viewBox="0 0 21 21" style="enable-background:new 0 0 21 21;" xml:space="preserve">
<style type="text/css">
	.st0{fill-rule:evenodd;clip-rule:evenodd;fill:url(#SVGID_1_);}
</style>
<linearGradient id="SVGID_1_" gradientUnits="userSpaceOnUse" x1="15.7621" y1="2.7323" x2="4.0682" y2="20.6507" gradientTransform="matrix(1 0 0 -1 0 22)">
	<stop  offset="7.615700e-03" style="stop-color:#645AFF"/>
	<stop  offset="0.5038" style="stop-color:#E40C5B"/>
	<stop  offset="1" style="stop-color:#FF4C3B"/>
</linearGradient>
<path class="st0" d="M10,20.45c5.52,0,10-4.48,10-10c0-5.52-4.48-10-10-10c-5.52,0-10,4.48-10,10C0,15.97,4.48,20.45,10,20.45z
	 M10.05,19.51c5,0,9.06-4.06,9.06-9.06c0-5-4.06-9.06-9.06-9.06c-5,0-9.06,4.06-9.06,9.06C0.98,15.45,5.04,19.51,10.05,19.51z
	 M10,18.81c4.62,0,8.37-3.75,8.37-8.37c0-4.62-3.75-8.37-8.37-8.37c-4.62,0-8.37,3.75-8.37,8.37C1.64,15.07,5.38,18.81,10,18.81z
	 M10.03,17.79c4.07,0,7.37-3.3,7.37-7.37c0-4.07-3.3-7.37-7.37-7.37s-7.37,3.3-7.37,7.37C2.66,14.49,5.96,17.79,10.03,17.79z
	 M9.96,11.8c-0.41,0-0.81,0.03-1.19,0.1l0.59-1.03c0.2-0.01,0.4-0.02,0.6-0.02c0.47,0,0.94,0.04,1.4,0.11l-2.3-4l-3.83,6.66
	l-0.55-0.95l4.37-7.59L9.06,5.1l0.01-0.02l5.28,9.16h-1.1l-1.23-2.14C11.37,11.91,10.69,11.8,9.96,11.8z M14.68,13.64L9.58,4.77h1.1
	l4.56,7.92L14.68,13.64z M9.61,9.15l-2.1,3.64c0.75-0.23,1.63-0.33,2.47-0.33c0.07,0,0.14,0,0.2,0c0.47,0.01,0.95,0.06,1.41,0.15
	l0.7,1.22c-0.72-0.26-1.49-0.42-2.31-0.42c-1.21,0-2.33,0.3-3.3,0.82l0.02-0.03l-0.02,0.04h-1.1l3.48-6.05L9.61,9.15z"/>
</svg>
